<svg width="103" height="78" viewBox="0 0 103 78" fill="none" xmlns="http://www.w3.org/2000/svg">
<g clip-path="url(#clip0)">
<path d="M0.820312 65.9557H6.2961C10.443 65.9557 13.2769 63.3789 13.2769 59.4257C13.2769 56.5607 11.2115 54.7522 7.75311 54.7522H3.06186L0.820312 65.9557ZM3.84641 63.8271L5.23937 56.8808H7.46491C9.57837 56.8808 10.6511 57.9052 10.6511 59.5697C10.6511 62.0025 9.06602 63.8271 6.37615 63.8271H3.84641Z" fill="#5C5C5C"/>
<path d="M21.8456 57.345L21.6214 58.5134C21.0611 57.6171 20.0684 57.217 18.8195 57.217C16.1617 57.217 14.0642 59.3296 14.0642 62.2265C14.0642 64.6753 15.7774 66.0838 17.7788 66.0838C18.8355 66.0838 19.7321 65.7317 20.4206 65.1075L20.2605 65.9557H22.6301L24.3433 57.345H21.8456ZM18.5473 64.0191C17.2985 64.0191 16.578 63.2829 16.578 62.1145C16.578 60.434 17.6347 59.2816 19.1077 59.2816C20.3566 59.2816 21.0771 60.0178 21.0771 61.1862C21.0771 62.8668 20.0203 64.0191 18.5473 64.0191Z" fill="#5C5C5C"/>
<path d="M34.2931 61.0102C34.2931 58.7054 32.708 57.217 30.1943 57.217C27.2002 57.217 25.1187 59.3456 25.1187 62.2265C25.1187 64.5633 26.8319 66.0838 29.5218 66.0838C30.8347 66.0838 32.1316 65.7317 33.1243 64.9314L32.0836 63.2829C31.4911 63.795 30.6586 64.0831 29.778 64.0831C28.353 64.0831 27.6325 63.491 27.5524 62.3226H34.149C34.229 61.9225 34.2931 61.4743 34.2931 61.0102ZM30.0822 59.0895C31.235 59.0895 32.0035 59.7298 32.0035 60.8661H27.7285C28.0648 59.7938 28.8813 59.0895 30.0822 59.0895Z" fill="#5C5C5C"/>
<path d="M48.1928 65.9557H50.7866L48.0327 54.7522H45.4709L38.2179 65.9557H40.9878L42.4449 63.555H47.6645L48.1928 65.9557ZM43.6457 61.5863L46.2875 57.265L47.2322 61.5863H43.6457Z" fill="#5C5C5C"/>
<path d="M51.7893 65.9557H54.287L56.6567 54.08H54.1589L51.7893 65.9557Z" fill="#5C5C5C"/>
<path d="M60.4798 58.3693L60.688 57.345H58.3183L56.6051 65.9557H59.1029L59.9354 61.7944C60.2557 60.1779 61.2003 59.4897 62.6733 59.4897C62.8815 59.4897 63.0256 59.5057 63.2497 59.5217L63.698 57.217C62.3051 57.217 61.2484 57.5371 60.4798 58.3693Z" fill="#5C5C5C"/>
<path d="M66.8163 56.1446C67.809 56.1446 68.4815 55.5204 68.4815 54.6081C68.4815 53.9039 67.8891 53.3597 67.0085 53.3597C66.0158 53.3597 65.3593 54.0159 65.3593 54.8482C65.3593 55.5684 65.9357 56.1446 66.8163 56.1446ZM63.438 65.9557H65.9197L67.6329 57.345H65.1512L63.438 65.9557Z" fill="#5C5C5C"/>
<path d="M76.4519 57.345L76.1797 58.7534C75.6513 57.6651 74.5465 57.217 73.2657 57.217C70.5118 57.217 68.4623 59.2816 68.4623 61.9225C68.4623 64.1792 70.1435 65.5396 72.273 65.5396C73.3297 65.5396 74.2263 65.2035 74.8988 64.5793L74.8348 64.9474C74.5305 66.4039 73.746 67.1721 72.0168 67.1721C70.8 67.1721 69.6632 66.804 68.9907 66.2438L67.8059 68.0524C68.8146 68.7886 70.2236 69.1888 71.9047 69.1888C74.8828 69.1888 76.7561 67.8283 77.4125 64.5153L78.8375 57.345H76.4519ZM72.9454 63.491C71.7126 63.491 70.9761 62.8347 70.9761 61.7944C70.9761 60.3219 72.0328 59.2816 73.5058 59.2816C74.7387 59.2816 75.4432 59.9378 75.4432 60.9782C75.4432 62.4506 74.4024 63.491 72.9454 63.491Z" fill="#5C5C5C"/>
<path d="M86.1737 57.217C85.197 57.217 84.2684 57.505 83.5159 58.1292L84.3164 54.08H81.8187L79.4491 65.9557H81.9468L82.8114 61.5863C83.1156 60.0819 83.9962 59.3776 85.2611 59.3776C86.2538 59.3776 86.7341 59.8738 86.7341 60.7541C86.7341 60.9301 86.7181 61.1382 86.6701 61.3463L85.7414 65.9557H88.2391L89.1998 61.1862C89.2799 60.8181 89.3119 60.482 89.3119 60.1619C89.3119 58.2413 88.047 57.217 86.1737 57.217Z" fill="#5C5C5C"/>
<path d="M94.602 59.4577H96.7475L97.1318 57.5371H94.9863L95.4026 55.4404H92.9049L92.4886 57.5371H91.1597L90.7754 59.4577H92.1043L91.4158 62.9308C91.3678 63.1869 91.3358 63.4429 91.3358 63.683C91.3358 65.1875 92.4245 66.0838 94.0256 66.0838C94.7782 66.0838 95.5467 65.9557 96.1711 65.5716L95.8029 63.795C95.4827 63.9871 95.1304 64.0991 94.7942 64.0991C94.1697 64.0991 93.8815 63.795 93.8815 63.2669C93.8815 63.1548 93.8815 63.0428 93.9136 62.9148L94.602 59.4577Z" fill="#5C5C5C"/>
<path d="M98.4058 62.0665H100.391L102.361 54.7522H99.3825L98.4058 62.0665ZM98.8221 66.0838C99.7187 66.0838 100.423 65.3956 100.423 64.5153C100.423 63.779 99.8148 63.2029 98.9662 63.2029C98.0536 63.2029 97.3491 63.8431 97.3491 64.7393C97.3491 65.4756 97.9575 66.0838 98.8221 66.0838Z" fill="#5C5C5C"/>
<path d="M30.4116 72.1879L30.5022 71.7423H27.159L26.1838 76.6155H26.6923L27.1032 74.5479H29.6315L29.7221 74.1023H27.1938L27.5769 72.1879H30.4116Z" fill="#898989"/>
<path d="M31.9943 76.6503C33.2271 76.6503 34.1117 75.7244 34.1117 74.4713C34.1117 73.5245 33.4639 72.9258 32.4471 72.9258C31.2142 72.9258 30.3297 73.8517 30.3297 75.0979C30.3297 76.0377 30.9774 76.6503 31.9943 76.6503ZM32.0292 76.2118C31.263 76.2118 30.8242 75.794 30.8242 75.077C30.8242 74.0815 31.4998 73.3574 32.4122 73.3574C33.1784 73.3574 33.6172 73.7821 33.6172 74.4992C33.6172 75.4947 32.9416 76.2118 32.0292 76.2118Z" fill="#898989"/>
<path d="M36.3611 76.6503C37.5939 76.6503 38.4785 75.7244 38.4785 74.4713C38.4785 73.5245 37.8307 72.9258 36.8138 72.9258C35.581 72.9258 34.6964 73.8517 34.6964 75.0979C34.6964 76.0377 35.3442 76.6503 36.3611 76.6503ZM36.3959 76.2118C35.6298 76.2118 35.191 75.794 35.191 75.077C35.191 74.0815 35.8666 73.3574 36.779 73.3574C37.5451 73.3574 37.9839 73.7821 37.9839 74.4992C37.9839 75.4947 37.3083 76.2118 36.3959 76.2118Z" fill="#898989"/>
<path d="M42.9775 71.4499L42.5248 73.7195C42.3089 73.2112 41.8283 72.9258 41.1318 72.9258C39.9408 72.9258 39.0632 73.8448 39.0632 75.0979C39.0632 76.0656 39.7179 76.6503 40.6582 76.6503C41.2502 76.6503 41.7378 76.4206 42.086 76.0377L41.9676 76.6155H42.4412L43.4721 71.4499H42.9775ZM40.7627 76.2118C39.9965 76.2118 39.5577 75.794 39.5577 75.077C39.5577 74.0815 40.2333 73.3574 41.1457 73.3574C41.9119 73.3574 42.3507 73.7821 42.3507 74.4992C42.3507 75.4947 41.6751 76.2118 40.7627 76.2118Z" fill="#898989"/>
<path d="M49.5209 71.4499L49.0682 73.7195C48.8522 73.2112 48.3717 72.9258 47.6751 72.9258C46.4841 72.9258 45.6065 73.8448 45.6065 75.0979C45.6065 76.0656 46.2612 76.6503 47.2015 76.6503C47.7936 76.6503 48.2811 76.4206 48.6294 76.0377L48.511 76.6155H48.9846L50.0154 71.4499H49.5209ZM47.306 76.2118C46.5398 76.2118 46.101 75.794 46.101 75.077C46.101 74.0815 46.7767 73.3574 47.6891 73.3574C48.4552 73.3574 48.894 73.7821 48.894 74.4992C48.894 75.4947 48.2184 76.2118 47.306 76.2118Z" fill="#898989"/>
<path d="M53.9 74.9238C53.9279 74.7846 53.9488 74.6314 53.9488 74.4783C53.9488 73.5036 53.322 72.9258 52.3538 72.9258C51.1837 72.9258 50.327 73.8448 50.327 75.0909C50.327 76.0516 50.9747 76.6503 52.0334 76.6503C52.6046 76.6503 53.1548 76.4484 53.4961 76.1073L53.2732 75.7523C53.0016 76.0377 52.5628 76.2118 52.0752 76.2118C51.2324 76.2118 50.8145 75.801 50.8145 75.07C50.8145 75.0213 50.8145 74.9726 50.8215 74.9238H53.9ZM52.3399 73.3435C53.0225 73.3435 53.4891 73.7264 53.4891 74.4226C53.4891 74.4644 53.4891 74.5061 53.4821 74.5549H50.8703C51.0513 73.8239 51.6016 73.3435 52.3399 73.3435Z" fill="#898989"/>
<path d="M54.5653 76.6155H55.0598L56.0907 71.4499H55.5961L54.5653 76.6155Z" fill="#898989"/>
<path d="M57.6199 72.1531C57.8428 72.1531 58.0099 71.986 58.0099 71.7632C58.0099 71.5961 57.8637 71.4499 57.6686 71.4499C57.4457 71.4499 57.2855 71.617 57.2855 71.8259C57.2855 71.9999 57.4249 72.1531 57.6199 72.1531ZM56.4358 76.6155H56.9303L57.6547 72.9537H57.1602L56.4358 76.6155Z" fill="#898989"/>
<path d="M61.6008 72.9537L59.6018 76.0795L58.8426 72.9537H58.3481L59.2536 76.6155H59.762L62.1162 72.9537H61.6008Z" fill="#898989"/>
<path d="M65.5175 74.9238C65.5454 74.7846 65.5663 74.6314 65.5663 74.4783C65.5663 73.5036 64.9394 72.9258 63.9713 72.9258C62.8012 72.9258 61.9445 73.8448 61.9445 75.0909C61.9445 76.0516 62.5922 76.6503 63.6509 76.6503C64.222 76.6503 64.7723 76.4484 65.1136 76.1073L64.8907 75.7523C64.619 76.0377 64.1802 76.2118 63.6927 76.2118C62.8499 76.2118 62.432 75.801 62.432 75.07C62.432 75.0213 62.432 74.9726 62.439 74.9238H65.5175ZM63.9574 73.3435C64.6399 73.3435 65.1066 73.7264 65.1066 74.4226C65.1066 74.4644 65.1066 74.5061 65.0996 74.5549H62.4877C62.6688 73.8239 63.2191 73.3435 63.9574 73.3435Z" fill="#898989"/>
<path d="M67.2554 73.622L67.3808 72.9537H66.9072L66.1828 76.6155H66.6773L67.0465 74.7568C67.2276 73.8448 67.7499 73.3992 68.53 73.3992C68.5857 73.3992 68.6206 73.4062 68.6693 73.4062L68.7599 72.9258C68.0634 72.9258 67.5828 73.1416 67.2554 73.622Z" fill="#898989"/>
<path d="M72.3818 72.9537L70.3828 76.0725L69.6236 72.9537H69.1222L70.0346 76.5946L69.7769 76.9845C69.4913 77.4301 69.2475 77.5762 68.9341 77.5762C68.6555 77.5762 68.4465 77.4788 68.2864 77.3117L68.0217 77.6737C68.2028 77.8826 68.551 78.0009 68.8923 78.0009C69.4217 78.0009 69.7629 77.7851 70.2157 77.0889L72.8902 72.9537H72.3818Z" fill="#898989"/>
<path d="M75.7439 76.6503C76.719 76.6503 77.3668 76.2326 77.3668 75.5086C77.3668 74.2903 75.2912 74.8681 75.2912 74.0188C75.2912 73.622 75.6742 73.3505 76.3499 73.3505C76.726 73.3505 77.1369 73.4479 77.4225 73.6638L77.6314 73.2669C77.3528 73.0581 76.8583 72.9258 76.3917 72.9258C75.4305 72.9258 74.8036 73.3714 74.8036 74.0675C74.8036 75.3067 76.8792 74.7359 76.8792 75.5643C76.8792 75.9751 76.4961 76.2187 75.7927 76.2187C75.2912 76.2187 74.8036 76.0586 74.525 75.8149L74.2882 76.2048C74.5738 76.4624 75.1449 76.6503 75.7439 76.6503Z" fill="#898989"/>
<path d="M81.6242 74.9238C81.6521 74.7846 81.673 74.6314 81.673 74.4783C81.673 73.5036 81.0461 72.9258 80.078 72.9258C78.9078 72.9258 78.0511 73.8448 78.0511 75.0909C78.0511 76.0516 78.6989 76.6503 79.7576 76.6503C80.3287 76.6503 80.8789 76.4484 81.2202 76.1073L80.9973 75.7523C80.7257 76.0377 80.2869 76.2118 79.7994 76.2118C78.9566 76.2118 78.5387 75.801 78.5387 75.07C78.5387 75.0213 78.5387 74.9726 78.5456 74.9238H81.6242ZM80.064 73.3435C80.7466 73.3435 81.2133 73.7264 81.2133 74.4226C81.2133 74.4644 81.2133 74.5061 81.2063 74.5549H78.5944C78.7755 73.8239 79.3257 73.3435 80.064 73.3435Z" fill="#898989"/>
<path d="M83.3621 73.622L83.4875 72.9537H83.0138L82.2895 76.6155H82.784L83.1531 74.7568C83.3342 73.8448 83.8566 73.3992 84.6367 73.3992C84.6924 73.3992 84.7272 73.4062 84.776 73.4062L84.8665 72.9258C84.17 72.9258 83.6894 73.1416 83.3621 73.622Z" fill="#898989"/>
<path d="M88.4815 72.9537L86.4825 76.0795L85.7233 72.9537H85.2288L86.1343 76.6155H86.6427L88.9969 72.9537H88.4815Z" fill="#898989"/>
<path d="M90.1461 72.1531C90.369 72.1531 90.5361 71.986 90.5361 71.7632C90.5361 71.5961 90.3899 71.4499 90.1949 71.4499C89.972 71.4499 89.8118 71.617 89.8118 71.8259C89.8118 71.9999 89.9511 72.1531 90.1461 72.1531ZM88.962 76.6155H89.4566L90.1809 72.9537H89.6864L88.962 76.6155Z" fill="#898989"/>
<path d="M92.4902 76.6503C93.1171 76.6503 93.6952 76.3928 94.0225 75.9542L93.6673 75.6827C93.4026 76.0307 92.9778 76.2118 92.5111 76.2118C91.731 76.2118 91.2922 75.794 91.2922 75.077C91.2922 74.0815 91.9678 73.3574 92.8872 73.3574C93.3887 73.3574 93.7439 73.5384 93.9529 73.9005L94.3708 73.6568C94.0991 73.1695 93.5977 72.9258 92.929 72.9258C91.6823 72.9258 90.7977 73.8448 90.7977 75.0979C90.7977 76.0377 91.4455 76.6503 92.4902 76.6503Z" fill="#898989"/>
<path d="M98.2342 74.9238C98.2621 74.7846 98.283 74.6314 98.283 74.4783C98.283 73.5036 97.6561 72.9258 96.688 72.9258C95.5178 72.9258 94.6611 73.8448 94.6611 75.0909C94.6611 76.0516 95.3089 76.6503 96.3676 76.6503C96.9387 76.6503 97.4889 76.4484 97.8302 76.1073L97.6073 75.7523C97.3357 76.0377 96.8969 76.2118 96.4094 76.2118C95.5666 76.2118 95.1487 75.801 95.1487 75.07C95.1487 75.0213 95.1487 74.9726 95.1556 74.9238H98.2342ZM96.674 73.3435C97.3566 73.3435 97.8233 73.7264 97.8233 74.4226C97.8233 74.4644 97.8233 74.5061 97.8163 74.5549H95.2044C95.3855 73.8239 95.9357 73.3435 96.674 73.3435Z" fill="#898989"/>
<path d="M99.0039 76.6503C99.2059 76.6503 99.387 76.4833 99.387 76.2535C99.387 76.0447 99.2338 75.8915 99.0318 75.8915C98.8229 75.8915 98.6418 76.0586 98.6418 76.2883C98.6418 76.4902 98.802 76.6503 99.0039 76.6503Z" fill="#898989"/>
<path d="M100.48 76.6503C100.682 76.6503 100.863 76.4833 100.863 76.2535C100.863 76.0447 100.71 75.8915 100.508 75.8915C100.299 75.8915 100.118 76.0586 100.118 76.2883C100.118 76.4902 100.278 76.6503 100.48 76.6503Z" fill="#898989"/>
<path d="M101.956 76.6503C102.158 76.6503 102.339 76.4833 102.339 76.2535C102.339 76.0447 102.186 75.8915 101.984 75.8915C101.775 75.8915 101.594 76.0586 101.594 76.2883C101.594 76.4902 101.754 76.6503 101.956 76.6503Z" fill="#898989"/>
<path fill-rule="evenodd" clip-rule="evenodd" d="M66.0938 9.12205C67.0776 8.06598 67.9021 6.96051 68.086 6.0773C68.6007 3.60588 67.0303 1.21593 64.5526 0.69992C62.0749 0.183911 59.6809 1.74824 59.1662 4.21967C58.9343 5.33314 59.4949 7.17695 60.1809 8.86699C60.1098 8.91639 60.0342 8.96124 59.9533 9.00058C52.6388 9.61912 47.5351 11.9748 45.8976 13.0753C45.3006 13.1339 44.4709 13.0746 43.5599 13.0095C41.1817 12.8395 38.2495 12.63 37.4564 14.3749C36.3544 16.799 38.7336 16.8401 40.6811 16.8738H40.6812C41.4432 16.8869 42.1392 16.8989 42.5347 17.0521C44.1036 17.6598 43.7538 19.5383 42.5329 20.2931C41.3293 21.0371 39.4647 20.9272 37.8574 20.8324C37.354 20.8028 36.8758 20.7746 36.4511 20.7746H22.0411C21.6942 20.7746 21.2613 20.7446 20.7826 20.7115C18.7318 20.5697 15.8396 20.3696 15.2609 22.2152C14.5081 24.6154 17.2572 24.5266 18.9948 24.4705H18.9949C19.2325 24.4628 19.4512 24.4557 19.6395 24.4557H31.6478C31.8013 24.4557 31.9674 24.4517 32.1415 24.4476H32.1417C33.4401 24.4163 35.1859 24.3743 35.494 25.8964C35.8805 27.8066 33.6465 28.2968 32.2882 28.297H24.4428L24.3074 28.2968C23.1418 28.2951 21.9099 28.2933 21.2179 29.4197C20.4969 30.5932 21.1312 32.0442 22.5215 32.1311C23.4129 32.1869 24.321 32.1483 25.23 32.1096H25.2301C26.4185 32.059 27.6087 32.0083 28.7658 32.1684C29.6165 32.2862 30.4362 32.9756 30.3895 33.8988C30.3073 35.5205 28.6409 35.9773 27.3248 35.9794H21.5608C21.349 35.9794 21.1244 35.9696 20.8939 35.9595C20.1418 35.9266 19.3259 35.891 18.6812 36.1841C17.4954 36.7232 16.7783 38.6433 18.0558 39.4991C18.6313 39.8846 19.4054 39.8573 20.1103 39.8324H20.1105C20.2789 39.8264 20.4433 39.8206 20.6001 39.8206H23.6423C22.4858 41.0401 21.6966 43.4426 23.803 44.2784C25.0331 44.7664 26.7681 44.649 28.3267 44.5435H28.3268C28.9415 44.5019 29.5287 44.4621 30.0467 44.4621C30.2765 44.4621 30.5252 44.4764 30.781 44.4911H30.7812C31.3966 44.5265 32.0533 44.5643 32.5872 44.4112C33.1387 44.2532 33.5907 43.3868 33.9935 42.615C34.2086 42.2028 34.4096 41.8175 34.6042 41.5814C36.0289 39.8523 38.3419 38.5719 40.614 38.5433C42.825 38.5153 44.8612 39.6886 45.9817 41.5812C46.12 41.8149 46.2273 42.2238 46.3417 42.6602C46.5422 43.4246 46.7648 44.2733 47.215 44.4112C48.575 44.828 50.4112 44.6939 52.0978 44.5706C52.8554 44.5153 53.5829 44.4621 54.2234 44.4621H64.1503C64.6533 44.4621 65.1795 44.4872 65.7133 44.5126H65.7134H65.7135C66.8569 44.567 68.0354 44.623 69.0964 44.4384C69.6782 44.3371 70.0868 43.52 70.4484 42.7971C70.6246 42.445 70.7895 42.1152 70.9579 41.9013C72.168 40.3635 73.7816 39.2619 75.6782 38.7768C79.5654 37.7827 83.0523 40.5527 83.3635 44.4621H89.1275C89.3085 44.4621 89.4922 44.4667 89.6771 44.4714C90.5326 44.4929 91.4137 44.5151 92.1695 44.0833C94.689 42.6439 93.9749 39.2049 91.0489 39.1804C92.908 24.4751 80.9121 9.94051 66.0938 9.12205ZM63.3103 6.66741C64.143 6.84081 64.9556 6.32048 65.1253 5.50521C65.2951 4.68995 64.7578 3.88849 63.9252 3.71509C63.0926 3.54169 62.28 4.06202 62.1102 4.87728C61.9404 5.69254 62.4777 6.49401 63.3103 6.66741ZM21.8817 16.8047C20.005 16.2083 20.5678 13.7094 22.2013 13.1966C23.0146 12.9413 24.0263 12.9979 24.9695 13.0508C25.344 13.0718 25.7077 13.0921 26.0439 13.0921C26.8541 13.0921 27.7527 13.0317 28.6818 12.9692C30.7448 12.8304 32.9584 12.6816 34.6893 13.1616C36.4811 13.6584 35.8858 16.055 34.5296 16.6688C33.7265 17.0324 32.7262 16.9922 31.8004 16.955C31.5272 16.9441 31.2605 16.9333 31.0073 16.9333C30.1885 16.9333 29.2692 16.9964 28.3135 17.062C26.0995 17.214 23.6902 17.3794 21.8817 16.8047ZM10.5282 31.9767C8.61218 31.1286 9.96944 28.7294 11.4738 28.3816C13.2096 27.9804 17.1741 27.7955 18.8383 28.4401C20.6652 29.1475 19.9347 31.539 18.3586 32.0337C17.2192 32.3914 15.7449 32.2973 14.3818 32.2102C13.8088 32.1735 13.2554 32.1382 12.7547 32.1382C12.5937 32.1382 12.424 32.145 12.25 32.152C11.6661 32.1755 11.0347 32.2009 10.5282 31.9767ZM34.4166 45.9026C34.7467 43.1145 36.8591 40.8109 39.6533 40.3711C43.2209 39.8094 45.79 42.9946 44.8118 46.3827C44.1071 48.823 41.9546 50.4541 39.4932 50.7955C36.6786 51.1859 34.0773 48.767 34.4166 45.9026ZM71.0872 45.2624C71.5038 42.7681 73.7015 40.7659 76.1586 40.3712C79.5734 39.8227 82.2577 42.6868 81.4935 46.0626C80.9214 48.5898 78.6827 50.4597 76.1586 50.8161C72.8657 51.2811 70.5689 48.3648 71.0872 45.2624Z" fill="#D6DB46"/>
</g>
<defs>
<clipPath id="clip0">
<rect width="103" height="78" fill="white"/>
</clipPath>
</defs>
</svg>
